<svg xmlns="http://www.w3.org/2000/svg" width="384" height="192" viewBox="0 0 384 192" role="img" aria-label="Caval Studio logo grid">
  <rect width="384" height="192" fill="#0A1A2F"/>
  <g stroke="rgba(245,247,250,0.08)" stroke-width="1">
    <path d="M0 8H384M0 16H384M0 24H384M0 32H384M0 40H384M0 48H384M0 56H384M0 64H384M0 72H384M0 80H384M0 88H384M0 96H384M0 104H384M0 112H384M0 120H384M0 128H384M0 136H384M0 144H384M0 152H384M0 160H384M0 168H384M0 176H384M0 184H384"/>
    <path d="M8 0V192M16 0V192M24 0V192M32 0V192M40 0V192M48 0V192M56 0V192M64 0V192M72 0V192M80 0V192M88 0V192M96 0V192M104 0V192M112 0V192M120 0V192M128 0V192M136 0V192M144 0V192M152 0V192M160 0V192M168 0V192M176 0V192M184 0V192M192 0V192M200 0V192M208 0V192M216 0V192M224 0V192M232 0V192M240 0V192M248 0V192M256 0V192M264 0V192M272 0V192M280 0V192M288 0V192M296 0V192M304 0V192M312 0V192M320 0V192M328 0V192M336 0V192M344 0V192M352 0V192M360 0V192M368 0V192M376 0V192"/>
  </g>
  <rect x="64" y="40" width="64" height="112" rx="32" fill="none" stroke="rgba(245,247,250,0.28)" stroke-width="2"/>
  <g fill="none" stroke-linecap="round">
    <path d="M84 68V124" stroke="#F5F7FA" stroke-width="3" opacity="0.64"/>
    <path d="M96 56V136" stroke="#00E0FF" stroke-width="3"/>
    <path d="M108 72V120" stroke="#F5F7FA" stroke-width="3" opacity="0.72"/>
  </g>
  <line x1="144" y1="56" x2="144" y2="136" stroke="rgba(245,247,250,0.24)" stroke-dasharray="4 4"/>
  <text x="160" y="92" fill="#F5F7FA" font-family="Sora, Inter, sans-serif" font-size="32" font-weight="700">Caval</text>
  <text x="160" y="122" fill="#8A95A6" font-family="Inter, sans-serif" font-size="18">Studio</text>
  <text x="64" y="168" fill="#8A95A6" font-family="Inter, sans-serif" font-size="12">8px grid / 2-3px stroke / 4-6px rhythm</text>
</svg>
